<svg width="68" height="68" viewBox="0 0 68 68" fill="none" xmlns="http://www.w3.org/2000/svg">
<g filter="url(#filter0_d_481_93)">
<path d="M34 0C26.0462 0.00889328 18.4208 3.17245 12.7966 8.79662C7.17245 14.4208 4.00889 22.0462 4 30C4.01333 37.9524 7.17831 45.5753 12.8015 51.1985C18.4247 56.8217 26.0476 59.9867 34 60C41.9565 60 49.5871 56.8393 55.2132 51.2132C60.8393 45.5871 64 37.9565 64 30C64 22.0435 60.8393 14.4129 55.2132 8.7868C49.5871 3.16071 41.9565 0 34 0ZM52.2472 47.3112C50.5623 43.9128 47.9613 41.0529 44.7375 39.0541C41.5138 37.0554 37.7956 35.9973 34.0024 35.9993C30.2093 36.0013 26.4922 37.0633 23.2706 39.0654C20.0489 41.0676 17.4509 43.9302 15.7696 47.3304C11.2838 42.678 8.78426 36.4627 8.8 30C8.8 23.3165 11.455 16.9068 16.1809 12.1809C20.9068 7.45499 27.3165 4.8 34 4.8C40.6835 4.8 47.0932 7.45499 51.8191 12.1809C56.545 16.9068 59.2 23.3165 59.2 30C59.215 36.4537 56.722 42.6608 52.2472 47.3112ZM34 12C31.864 12 29.7759 12.6334 27.9998 13.8201C26.2238 15.0068 24.8395 16.6936 24.0221 18.667C23.2047 20.6405 22.9908 22.812 23.4075 24.907C23.8242 27.002 24.8528 28.9263 26.3632 30.4368C27.8737 31.9472 29.798 32.9758 31.893 33.3925C33.988 33.8092 36.1595 33.5953 38.133 32.7779C40.1064 31.9605 41.7932 30.5762 42.9799 28.8002C44.1666 27.0241 44.8 24.936 44.8 22.8C44.8 21.3817 44.5206 19.9773 43.9779 18.667C43.4352 17.3567 42.6396 16.1661 41.6368 15.1632C40.6339 14.1604 39.4433 13.3649 38.133 12.8221C36.8227 12.2794 35.4183 12 34 12Z" fill="#FF8304"/>
</g>
<defs>
<filter id="filter0_d_481_93" x="0" y="0" width="68" height="68" filterUnits="userSpaceOnUse" color-interpolation-filters="sRGB">
<feFlood flood-opacity="0" result="BackgroundImageFix"/>
<feColorMatrix in="SourceAlpha" type="matrix" values="0 0 0 0 0 0 0 0 0 0 0 0 0 0 0 0 0 0 127 0" result="hardAlpha"/>
<feOffset dy="4"/>
<feGaussianBlur stdDeviation="2"/>
<feComposite in2="hardAlpha" operator="out"/>
<feColorMatrix type="matrix" values="0 0 0 0 0 0 0 0 0 0 0 0 0 0 0 0 0 0 0.75 0"/>
<feBlend mode="normal" in2="BackgroundImageFix" result="effect1_dropShadow_481_93"/>
<feBlend mode="normal" in="SourceGraphic" in2="effect1_dropShadow_481_93" result="shape"/>
</filter>
</defs>
</svg>
